<?xml version="1.0" encoding="iso-8859-1"?>
<!-- Uploaded to: SVG Repo, www.svgrepo.com, Generator: SVG Repo Mixer Tools -->
<svg fill="#000000" version="1.1" id="Layer_1" xmlns="http://www.w3.org/2000/svg" xmlns:xlink="http://www.w3.org/1999/xlink" 
	 viewBox="0 0 511.926 511.926" xml:space="preserve">
<g>
	<g>
		<path d="M511.643,211.176l-25.6-102.4c-1-3.8-4.4-6.5-8.3-6.5h-124.2l-91.3-99.6c-3.2-3.5-9.3-3.5-12.6,0l-91.3,99.6h-124.3
			c-3.9,0-7.3,2.7-8.3,6.5l-25.5,102.4c-0.6,2.6-0.1,5.2,1.6,7.3c1.6,2.1,4.1,3.3,6.7,3.3h8.5v281.6c0,4.7,3.8,8.5,8.5,8.5h136.5
			h34.1v-34.1h8.5c4.7,0,8.5-3.8,8.5-8.5s-3.8-8.5-8.5-8.5h-8.5v-93.9c0-4.7,3.8-8.5,8.5-8.5h102.4c4.7,0,8.5,3.8,8.5,8.5v93.9h-8.5
			c-4.7,0-8.5,3.8-8.5,8.5s3.8,8.5,8.5,8.5h8.5v34.1h34.1h136.5c4.7,0,8.5-3.8,8.5-8.5v-281.6h8.5c2.6,0,5.1-1.2,6.7-3.3
			C511.743,216.376,512.344,213.676,511.643,211.176z M153.544,494.776h-119.5v-17.1h119.5V494.776z M153.544,460.676h-119.5v-238.9
			h119.5V460.676z M153.544,204.676h-128h-6.1l21.3-85.3h112.8V204.676z M298.643,324.176h-8.5h-68.3h-8.5c-4.7,0-8.5-3.8-8.5-8.5
			s3.8-8.5,8.5-8.5v-59.7c0-4.7,3.8-8.5,8.5-8.5h68.3c4.7,0,8.5,3.8,8.5,8.5v59.7c4.7,0,8.5,3.8,8.5,8.5
			S303.343,324.176,298.643,324.176z M255.943,187.576c-28.2,0-51.2-23-51.2-51.2s23-51.2,51.2-51.2s51.2,23,51.2,51.2
			C307.143,164.676,284.143,187.576,255.943,187.576z M477.843,494.776h-119.5v-17.1h119.5V494.776z M477.843,460.676h-119.5v-238.9
			h119.5V460.676z M486.343,204.676h-128v-85.3h112.8l21.3,85.3H486.343z"/>
	</g>
</g>
<g>
	<g>
		<path d="M136.443,307.076v-59.7c0-4.7-3.8-8.5-8.5-8.5h-68.3c-4.7,0-8.5,3.8-8.5,8.5v59.7c-4.7,0-8.5,3.8-8.5,8.5s3.8,8.5,8.5,8.5
			h8.5h68.3h8.5c4.7,0,8.5-3.8,8.5-8.5C145.044,310.876,141.143,307.076,136.443,307.076z M85.343,307.076h-0.1h-17v-51.2h17.1
			V307.076z M119.443,307.076h-17.1v-51.2h17.1V307.076z"/>
	</g>
</g>
<g>
	<g>
		<path d="M136.443,409.476v-59.7c0-4.7-3.8-8.5-8.5-8.5h-68.3c-4.7,0-8.5,3.8-8.5,8.5v59.7c-4.7,0-8.5,3.8-8.5,8.5s3.8,8.5,8.5,8.5
			h8.5h68.3h8.5c4.7,0,8.5-3.8,8.5-8.5C145.044,413.276,141.143,409.476,136.443,409.476z M85.343,409.476h-0.1h-17v-51.2h17.1
			V409.476z M119.443,409.476h-17.1v-51.2h17.1V409.476z"/>
	</g>
</g>
<g>
	<g>
		<path d="M460.743,307.076v-59.7c0-4.7-3.8-8.5-8.5-8.5h-68.3c-4.7,0-8.5,3.8-8.5,8.5v59.7c-4.7,0-8.5,3.8-8.5,8.5s3.8,8.5,8.5,8.5
			h8.5h68.3h8.5c4.7,0,8.5-3.8,8.5-8.5S465.443,307.076,460.743,307.076z M409.543,307.076h-17.1v-51.2h17.1V307.076z
			 M443.643,307.076h-17.1v-51.2h17.1V307.076z"/>
	</g>
</g>
<g>
	<g>
		<path d="M460.743,409.476v-59.7c0-4.7-3.8-8.5-8.5-8.5h-68.3c-4.7,0-8.5,3.8-8.5,8.5v59.7c-4.7,0-8.5,3.8-8.5,8.5s3.8,8.5,8.5,8.5
			h8.5h68.3h8.5c4.7,0,8.5-3.8,8.5-8.5S465.443,409.476,460.743,409.476z M409.543,409.476h-17.1v-51.2h17.1V409.476z
			 M443.643,409.476h-17.1v-51.2h17.1V409.476z"/>
	</g>
</g>
<g>
	<g>
		<path d="M264.443,103.476v24.4h24.4C285.743,115.976,276.443,106.576,264.443,103.476z"/>
	</g>
</g>
<g>
	<g>
		<rect x="264.443" y="255.876" width="17.1" height="51.2"/>
	</g>
</g>
<g>
	<g>
		<path d="M213.243,375.276v0.1v93.9v42.6h85.3v-42.7v-93.9H213.243z M281.543,443.576h-8.5c-4.7,0-8.5-3.8-8.5-8.5s3.8-8.5,8.5-8.5
			h8.5c4.7,0,8.5,3.8,8.5,8.5C290.043,439.776,286.243,443.576,281.543,443.576z"/>
	</g>
</g>
<g>
	<g>
		<rect x="230.343" y="255.876" width="17.1" height="51.2"/>
	</g>
</g>
<g>
	<g>
		<path d="M223.044,127.876h24.4v-24.4C235.443,106.576,226.143,115.976,223.044,127.876z"/>
	</g>
</g>
<g>
	<g>
		<path d="M223.044,144.976c3.1,11.9,12.4,21.3,24.4,24.4v-24.4H223.044z"/>
	</g>
</g>
<g>
	<g>
		<path d="M264.443,144.976v24.4c11.9-3.1,21.3-12.5,24.4-24.4H264.443z"/>
	</g>
</g>
</svg>